<svg width="64" height="64" viewBox="0 0 64 64" fill="none" xmlns="http://www.w3.org/2000/svg">
<rect width="64" height="64" rx="32" fill="#B16700"/>
<g clip-path="url(#clip0_32_1221)">
<path d="M49.4261 22.256L48.9341 23.388C48.8572 23.5724 48.7275 23.7298 48.5613 23.8406C48.3951 23.9513 48.1998 24.0104 48.0001 24.0104C47.8004 24.0104 47.6051 23.9513 47.4389 23.8406C47.2727 23.7298 47.143 23.5724 47.0661 23.388L46.5741 22.256C45.7091 20.2535 44.1249 18.6479 42.1341 17.756L40.6161 17.078C40.4319 16.9933 40.2759 16.8576 40.1666 16.6869C40.0572 16.5162 39.9991 16.3177 39.9991 16.115C39.9991 15.9123 40.0572 15.7139 40.1666 15.5432C40.2759 15.3725 40.4319 15.2367 40.6161 15.152L42.0501 14.514C44.0909 13.5968 45.7022 11.9318 46.5521 9.86203L47.0601 8.64003C47.1344 8.45073 47.264 8.28822 47.4321 8.17368C47.6001 8.05913 47.7987 7.99786 48.0021 7.99786C48.2055 7.99786 48.4041 8.05913 48.5721 8.17368C48.7402 8.28822 48.8698 8.45073 48.9441 8.64003L49.4501 9.86003C50.2991 11.9302 51.9097 13.5959 53.9501 14.514L55.3861 15.154C55.5697 15.239 55.7252 15.3747 55.8341 15.5452C55.9431 15.7156 56.001 15.9137 56.001 16.116C56.001 16.3183 55.9431 16.5164 55.8341 16.6869C55.7252 16.8573 55.5697 16.9931 55.3861 17.078L53.8661 17.754C51.8757 18.6468 50.2922 20.2531 49.4281 22.256M26.0001 12C29.8855 11.9994 33.6383 13.4126 36.5582 15.9759C39.478 18.5392 41.3654 22.0773 41.8681 25.93L46.3681 33.008C46.6641 33.474 46.6041 34.168 45.9181 34.464L42.0001 36.14V42C42.0001 43.0609 41.5787 44.0783 40.8285 44.8285C40.0784 45.5786 39.061 46 38.0001 46H34.0021L34.0001 52H16.0001V44.612C16.0001 42.252 15.1281 40.018 13.5121 38.002C11.6276 35.6491 10.4462 32.8116 10.1039 29.8165C9.7617 26.8214 10.2726 23.7906 11.5777 21.0732C12.8828 18.3557 14.929 16.0623 17.4806 14.4571C20.0323 12.8518 22.9855 12.0001 26.0001 12ZM26.0001 16C23.7393 15.9999 21.5244 16.6385 19.6106 17.8422C17.6969 19.0459 16.1621 20.7658 15.1831 22.8036C14.204 24.8415 13.8206 27.1145 14.077 29.3608C14.3334 31.607 15.2191 33.7352 16.6321 35.5C18.8201 38.228 20.0001 41.334 20.0001 44.612V48H30.0001L30.0041 42H38.0001V33.504L41.1001 32.176L38.0141 27.326L37.9001 26.442C37.5219 23.5537 36.106 20.9015 33.9164 18.9802C31.7268 17.0589 28.9131 15.9996 26.0001 16ZM46.9801 41.986L50.3081 44.206C52.7223 40.5937 54.0075 36.3448 54.0001 32C53.9988 30.6334 53.8781 29.3 53.6381 28L49.7521 29C49.9161 29.9774 49.9988 30.9774 50.0001 32C50.0061 35.5545 48.9549 39.0305 46.9801 41.986Z" fill="#E6E6E6"/>
</g>
<defs>
<clipPath id="clip0_32_1221">
<rect width="48" height="48" fill="white" transform="translate(8 8)"/>
</clipPath>
</defs>
</svg>
