<svg width="64" height="64" viewBox="0 0 64 64" fill="none" xmlns="http://www.w3.org/2000/svg">
<rect width="64" height="64" rx="32" fill="#009FB1"/>
<g clip-path="url(#clip0_32_1259)">
<path d="M47.9999 20.294C47.5717 20.1941 47.1374 20.1227 46.6999 20.08C46.0982 17.0324 44.5643 14.2472 42.3104 12.1096C40.0564 9.97209 37.1938 8.5879 34.1186 8.1486C31.0435 7.70929 27.9078 8.23658 25.1455 9.65752C22.3832 11.0785 20.1307 13.3228 18.6999 16.08C17.7777 16.1914 16.8717 16.4095 15.9999 16.73C13.6618 17.5506 11.6364 19.0772 10.2035 21.0988C8.77061 23.1204 8.00098 25.5371 8.00098 28.015C8.00098 30.4929 8.77061 32.9096 10.2035 34.9311C11.6364 36.9527 13.6618 38.4793 15.9999 39.3V34.892C14.7842 34.196 13.774 33.1913 13.0715 31.9794C12.3689 30.7676 11.9989 29.3917 11.9989 27.991C11.9989 26.5902 12.3689 25.2143 13.0715 24.0025C13.774 22.7907 14.7842 21.786 15.9999 21.09C16.9549 20.529 18.0185 20.1779 19.1199 20.06L21.2599 19.84L22.2599 17.94C23.3048 15.9157 24.9538 14.2667 26.9782 13.2219C29.0026 12.177 31.302 11.7881 33.5574 12.1091C35.8128 12.43 37.9124 13.4449 39.5649 15.013C41.2175 16.581 42.3411 18.6245 42.7799 20.86L43.3799 23.86L46.4399 24.08C46.9728 24.124 47.4974 24.239 47.9999 24.422C49.167 24.8233 50.1798 25.579 50.8967 26.5837C51.6137 27.5883 51.999 28.7917 51.999 30.026C51.999 31.2602 51.6137 32.4636 50.8967 33.4683C50.1798 34.4729 49.167 35.2287 47.9999 35.63V39.798C50.2552 39.3482 52.285 38.1306 53.7436 36.3525C55.2021 34.5744 55.9992 32.3458 55.9992 30.046C55.9992 27.7462 55.2021 25.5175 53.7436 23.7394C52.285 21.9613 50.2552 20.7437 47.9999 20.294Z" fill="white"/>
<path d="M20 28V38H44V28H20ZM34 34H22V32H34V34ZM37 34C36.8022 34 36.6089 33.9414 36.4444 33.8315C36.28 33.7216 36.1518 33.5654 36.0761 33.3827C36.0004 33.2 35.9806 32.9989 36.0192 32.8049C36.0578 32.6109 36.153 32.4327 36.2929 32.2929C36.4327 32.153 36.6109 32.0578 36.8049 32.0192C36.9989 31.9806 37.2 32.0004 37.3827 32.0761C37.5654 32.1518 37.7216 32.28 37.8315 32.4444C37.9414 32.6089 38 32.8022 38 33C38 33.2652 37.8946 33.5196 37.7071 33.7071C37.5196 33.8946 37.2652 34 37 34ZM41 34C40.8022 34 40.6089 33.9414 40.4444 33.8315C40.28 33.7216 40.1518 33.5654 40.0761 33.3827C40.0004 33.2 39.9806 32.9989 40.0192 32.8049C40.0578 32.6109 40.153 32.4327 40.2929 32.2929C40.4327 32.153 40.6109 32.0578 40.8049 32.0192C40.9989 31.9806 41.2 32.0004 41.3827 32.0761C41.5654 32.1518 41.7216 32.28 41.8315 32.4444C41.9414 32.6089 42 32.8022 42 33C42 33.2652 41.8946 33.5196 41.7071 33.7071C41.5196 33.8946 41.2652 34 41 34ZM20 42V52H44V42H20ZM34 48H22V46H34V48ZM37 48C36.8022 48 36.6089 47.9414 36.4444 47.8315C36.28 47.7216 36.1518 47.5654 36.0761 47.3827C36.0004 47.2 35.9806 46.9989 36.0192 46.8049C36.0578 46.6109 36.153 46.4327 36.2929 46.2929C36.4327 46.153 36.6109 46.0578 36.8049 46.0192C36.9989 45.9806 37.2 46.0004 37.3827 46.0761C37.5654 46.1518 37.7216 46.28 37.8315 46.4444C37.9414 46.6089 38 46.8022 38 47C38 47.2652 37.8946 47.5196 37.7071 47.7071C37.5196 47.8946 37.2652 48 37 48ZM41 48C40.8022 48 40.6089 47.9414 40.4444 47.8315C40.28 47.7216 40.1518 47.5654 40.0761 47.3827C40.0004 47.2 39.9806 46.9989 40.0192 46.8049C40.0578 46.6109 40.153 46.4327 40.2929 46.2929C40.4327 46.153 40.6109 46.0578 40.8049 46.0192C40.9989 45.9806 41.2 46.0004 41.3827 46.0761C41.5654 46.1518 41.7216 46.28 41.8315 46.4444C41.9414 46.6089 42 46.8022 42 47C42 47.2652 41.8946 47.5196 41.7071 47.7071C41.5196 47.8946 41.2652 48 41 48Z" fill="white"/>
</g>
<defs>
<clipPath id="clip0_32_1259">
<rect width="48" height="48" fill="white" transform="translate(8 8)"/>
</clipPath>
</defs>
</svg>
