<svg width="64" height="64" viewBox="0 0 64 64" fill="none" xmlns="http://www.w3.org/2000/svg">
<rect width="64" height="64" rx="32" fill="#00B153"/>
<path d="M43 39.384C40.9533 39.384 39.2113 38.6653 37.774 37.228C36.334 35.788 35.614 34.0453 35.614 32C35.614 29.9547 36.334 28.2127 37.774 26.774C39.214 25.3353 40.956 24.6153 43 24.614C45.044 24.6127 46.7867 25.3327 48.228 26.774C49.6653 28.2127 50.384 29.9547 50.384 32C50.384 34.0453 49.6653 35.788 48.228 37.228C46.788 38.6653 45.0453 39.384 43 39.384ZM43 37.616C43.6053 37.616 44.178 37.5273 44.718 37.35C45.258 37.1727 45.7853 36.9073 46.3 36.554L38.446 28.7C38.0927 29.216 37.8273 29.744 37.65 30.284C37.4727 30.8227 37.384 31.3947 37.384 32C37.384 33.5547 37.9313 34.8793 39.026 35.974C40.122 37.0673 41.4467 37.616 43 37.616ZM47.554 35.3C47.9593 34.7533 48.2373 34.218 48.388 33.694C48.54 33.17 48.616 32.6053 48.616 32C48.616 30.4467 48.068 29.1227 46.972 28.028C45.8787 26.932 44.5547 26.384 43 26.384C42.3947 26.384 41.822 26.4727 41.282 26.65C40.742 26.8273 40.2147 27.0927 39.7 27.446L47.554 35.3ZM23.232 52C22.3427 52 21.582 51.6833 20.95 51.05C20.318 50.4167 20.0013 49.6573 20 48.772V15.23C20 14.342 20.3167 13.582 20.95 12.95C21.5833 12.318 22.3433 12.0013 23.23 12H40.77C41.658 12 42.418 12.3167 43.05 12.95C43.682 13.5833 43.9987 14.3427 44 15.228V20.844C44 21.128 43.904 21.3653 43.712 21.556C43.52 21.7467 43.282 21.8427 42.998 21.844C42.714 21.8453 42.4767 21.7493 42.286 21.556C42.0953 21.3627 42 21.126 42 20.846V19H22V45H42V43.154C42 42.87 42.096 42.6327 42.288 42.442C42.48 42.2513 42.718 42.1553 43.002 42.154C43.286 42.1527 43.5233 42.2487 43.714 42.442C43.9047 42.6353 44 42.8727 44 43.154V48.768C44 49.6573 43.6833 50.418 43.05 51.05C42.4167 51.682 41.6567 51.9987 40.77 52H23.232Z" fill="white"/>
</svg>
