<svg width="64" height="64" viewBox="0 0 64 64" fill="none" xmlns="http://www.w3.org/2000/svg">
<rect width="64" height="64" rx="32" fill="#B12300"/>
<path d="M36 44.64C33.8186 43.5857 31.9452 41.9878 30.56 40H14V16H50V20.52C51.6184 21.6589 52.9809 23.1236 54 24.82V16C54 14.9391 53.5786 13.9217 52.8284 13.1716C52.0783 12.4214 51.0609 12 50 12H14C12.9391 12 11.9217 12.4214 11.1716 13.1716C10.4214 13.9217 10 14.9391 10 16V40C10 41.0609 10.4214 42.0783 11.1716 42.8284C11.9217 43.5786 12.9391 44 14 44H28V48H24V52H40V48H36V44.64Z" fill="white"/>
<path d="M42 20C39.6266 20 37.3066 20.7038 35.3332 22.0224C33.3598 23.3409 31.8217 25.2151 30.9135 27.4078C30.0052 29.6005 29.7676 32.0133 30.2306 34.3411C30.6936 36.6689 31.8365 38.8071 33.5147 40.4853C35.193 42.1635 37.3311 43.3064 39.6589 43.7694C41.9867 44.2324 44.3995 43.9948 46.5922 43.0866C48.7849 42.1783 50.6591 40.6402 51.9776 38.6668C53.2962 36.6935 54 34.3734 54 32C54 28.8174 52.7357 25.7652 50.4853 23.5147C48.2348 21.2643 45.1826 20 42 20ZM42 35C41.4067 35 40.8266 34.8241 40.3333 34.4944C39.8399 34.1648 39.4554 33.6962 39.2284 33.1481C39.0013 32.5999 38.9419 31.9967 39.0576 31.4147C39.1734 30.8328 39.4591 30.2982 39.8787 29.8787C40.2982 29.4591 40.8328 29.1734 41.4147 29.0576C41.9967 28.9419 42.5999 29.0013 43.1481 29.2284C43.6962 29.4554 44.1648 29.8399 44.4944 30.3333C44.8241 30.8266 45 31.4067 45 32C45 32.7956 44.6839 33.5587 44.1213 34.1213C43.5587 34.6839 42.7957 35 42 35Z" fill="white"/>
</svg>
