<svg width="32" height="32" viewBox="0 0 32 32" fill="none" xmlns="http://www.w3.org/2000/svg">
<path d="M23.9997 24C25.6597 24.5654 26.6663 25.3094 26.6663 26.124C26.6663 27.8974 21.8903 29.3334 15.9997 29.3334C10.109 29.3334 5.33301 27.896 5.33301 26.124C5.33301 25.3094 6.33967 24.5654 7.99967 24M19.9997 12.6667C19.9997 13.7276 19.5782 14.745 18.8281 15.4951C18.078 16.2453 17.0605 16.6667 15.9997 16.6667C14.9388 16.6667 13.9214 16.2453 13.1712 15.4951C12.4211 14.745 11.9997 13.7276 11.9997 12.6667C11.9997 11.6058 12.4211 10.5884 13.1712 9.83826C13.9214 9.08811 14.9388 8.66669 15.9997 8.66669C17.0605 8.66669 18.078 9.08811 18.8281 9.83826C19.5782 10.5884 19.9997 11.6058 19.9997 12.6667Z" stroke="black" stroke-width="2" stroke-linecap="round" stroke-linejoin="round"/>
<path d="M16 2.66669C21.412 2.66669 26 7.23735 26 12.7827C26 18.416 21.3373 22.3694 17.0307 25.0574C16.7171 25.2378 16.3617 25.3327 16 25.3327C15.6383 25.3327 15.2829 25.2378 14.9693 25.0574C10.6707 22.3427 6 18.436 6 12.7827C6 7.23735 10.588 2.66669 16 2.66669Z" stroke="black" stroke-width="2" stroke-linecap="round" stroke-linejoin="round"/>
</svg>
