<svg width="181" height="30" viewBox="0 0 181 30" fill="none" xmlns="http://www.w3.org/2000/svg">
<path fill-rule="evenodd" clip-rule="evenodd" d="M15.2021 25.6313L17.5758 24.4192L19.9496 26.0354L19.8738 28.7626L17.3738 30L15.1011 28.3081L15.2021 25.6313Z" fill="#004BB1"/>
<path fill-rule="evenodd" clip-rule="evenodd" d="M12.3231 24.0909L10.3029 25.0758L10.1514 27.5758L12.1716 29.1919L14.3433 28.2323L14.4695 25.5808L12.3231 24.0909Z" fill="#004BB1"/>
<path fill-rule="evenodd" clip-rule="evenodd" d="M6.08545 26.5657L7.75212 28.1061L9.51979 27.399L9.54504 25.101L7.80262 23.7121L6.18646 24.4697L6.08545 26.5657Z" fill="#004BB1"/>
<path fill-rule="evenodd" clip-rule="evenodd" d="M12.7778 23.5353L14.8738 25.0252L17.2475 23.7879L17.4748 21.0858L15.2021 19.6717L12.9041 20.9343L12.7778 23.5353Z" fill="#004BB1"/>
<path fill-rule="evenodd" clip-rule="evenodd" d="M2.80278 28.6616L3.93915 28.8636L3.9644 27.197L2.85329 25.8081L1.96945 25.8333L1.91895 27.0454L2.80278 28.6616Z" fill="#004BB1"/>
<path fill-rule="evenodd" clip-rule="evenodd" d="M0.984533 26.0859L0.65625 24.798V24.1414L1.00979 24.3687L1.61585 25.5051L1.59059 26.5404L0.984533 26.0859Z" fill="#004BB1"/>
<path fill-rule="evenodd" clip-rule="evenodd" d="M3.05518 25.4798L4.16629 26.7677L5.55518 26.4647L5.70669 24.5455L4.34305 23.3586L3.08043 23.9394L3.05518 25.4798Z" fill="#004BB1"/>
<path fill-rule="evenodd" clip-rule="evenodd" d="M4.69671 21.1364L4.5957 22.9293L6.0351 24.0657L7.65126 23.1566L7.80277 20.9343L6.21186 20.0505L4.69671 21.1364Z" fill="#004BB1"/>
<path fill-rule="evenodd" clip-rule="evenodd" d="M1.76741 25.3283L2.62599 25.303L2.70175 23.8131L1.86842 22.9798L1.11084 23.2828V24.2929L1.76741 25.3283Z" fill="#004BB1"/>
<path fill-rule="evenodd" clip-rule="evenodd" d="M0.555388 23.7626L0.908923 24.0404L0.934176 23.1818L0.58064 22.7525L0.504883 23.5859L0.555388 23.7626Z" fill="#004BB1"/>
<path fill-rule="evenodd" clip-rule="evenodd" d="M0.782577 21.9949L0.757324 22.6515L1.08561 23.0556L1.79268 22.702L1.84318 21.6919L1.23712 21.3384L0.782577 21.9949Z" fill="#004BB1"/>
<path fill-rule="evenodd" clip-rule="evenodd" d="M2.07031 22.702L2.12082 21.5151L3.10567 20.606L4.21678 21.1869L4.14102 22.9293L2.95415 23.6111L2.07031 22.702Z" fill="#004BB1"/>
<path fill-rule="evenodd" clip-rule="evenodd" d="M0.580566 21.9444L1.08562 21.2374L1.13612 20.5303L0.631071 20.9849L0.580566 21.9444Z" fill="#004BB1"/>
<path fill-rule="evenodd" clip-rule="evenodd" d="M0.504883 22.4747L0.605893 22.601L0.656398 22.0455L0.530135 22.0202L0.504883 22.4747Z" fill="#004BB1"/>
<path fill-rule="evenodd" clip-rule="evenodd" d="M1.38861 20.1768L1.2876 20.9596L1.99467 21.1869L2.95426 20.2778L3.08053 19.0152H2.17144L1.38861 20.1768Z" fill="#004BB1"/>
<path fill-rule="evenodd" clip-rule="evenodd" d="M3.45927 18.7121L3.33301 20.1515C3.33301 20.1515 4.44412 20.7323 4.49462 20.7323C4.54513 20.7323 5.95927 19.6717 5.95927 19.6717L6.11079 17.7778L4.7724 17.3737L3.45927 18.6869V18.7121Z" fill="#004BB1"/>
<path fill-rule="evenodd" clip-rule="evenodd" d="M6.61622 17.5758L8.40915 16.1111L10.1263 16.8434L10.0001 19.0657L8.05561 20.4798L6.43945 19.5455L6.61622 17.5758Z" fill="#004BB1"/>
<path fill-rule="evenodd" clip-rule="evenodd" d="M10.8331 16.8182L13.0048 15.3788L15.1008 16.4141L14.8987 18.9394L12.5755 20.303L10.5806 19.1414L10.8331 16.8182Z" fill="#004BB1"/>
<path fill-rule="evenodd" clip-rule="evenodd" d="M21.4644 16.4394C21.5401 16.4142 24.1411 15.303 24.1411 15.303L26.5401 16.7929L26.3381 19.4445L23.7118 20.6818L21.2876 19.1162L21.4644 16.4394Z" fill="#004BB1"/>
<path fill-rule="evenodd" clip-rule="evenodd" d="M18.813 14.4697L19.0655 12.0202L21.6918 10.8333L24.1413 12.1212L23.8887 14.6212L21.212 15.9343L18.813 14.4697Z" fill="#004BB1"/>
<path fill-rule="evenodd" clip-rule="evenodd" d="M13.6616 12.5L16.0606 11.0354L18.2323 11.995L18.0303 14.5202L15.5808 15.8586L13.4849 14.798L13.6616 12.5Z" fill="#004BB1"/>
<path fill-rule="evenodd" clip-rule="evenodd" d="M12.9798 12.6263L11.0101 12.0202L9.0404 13.5606L8.83838 15.5808L10.5556 16.3131L12.7778 14.8737L12.9798 12.6263Z" fill="#004BB1"/>
<path fill-rule="evenodd" clip-rule="evenodd" d="M2.39893 18.5101L2.42418 17.4748L3.56054 15.9596L4.72216 15.6061L4.57064 17.096L3.30802 18.5354L2.39893 18.5101Z" fill="#004BB1"/>
<path fill-rule="evenodd" clip-rule="evenodd" d="M22.1714 10.2273L24.5704 11.5404L27.2471 10.6566L27.4997 8.51011L25.2269 7.14647L22.4744 7.95455L22.1714 10.2273Z" fill="#004BB1"/>
<path fill-rule="evenodd" clip-rule="evenodd" d="M7.19678 13.1313L7.34829 11.5152L9.14122 9.79799L10.9089 9.72223L10.6816 11.5404L8.76243 13.2576L7.19678 13.1313Z" fill="#004BB1"/>
<path fill-rule="evenodd" clip-rule="evenodd" d="M11.4141 11.4141L13.3585 11.9444L15.6817 10.505L15.9343 8.45959L13.8636 7.95454L11.6413 9.44444L11.4141 11.4141Z" fill="#004BB1"/>
<path fill-rule="evenodd" clip-rule="evenodd" d="M14.4443 7.42425L14.6716 5.75759L17.1464 4.3687C17.1464 4.3687 19.2928 4.72223 19.3181 4.79799C19.3181 4.8485 19.0655 6.56567 19.0655 6.56567L16.515 7.97981L14.4443 7.44951V7.42425Z" fill="#004BB1"/>
<path fill-rule="evenodd" clip-rule="evenodd" d="M19.8232 6.5404L20.1263 4.67171C20.1515 4.54545 22.7778 3.73737 22.7778 3.73737L25.2525 4.77272L24.9243 6.56565L22.1717 7.52524L19.8485 6.51514L19.8232 6.5404Z" fill="#004BB1"/>
<path fill-rule="evenodd" clip-rule="evenodd" d="M25.7827 6.71717L26.0352 4.87374L28.6868 4.4697L30.9342 5.93434L30.5554 7.62626L28.0807 8.08081L25.7827 6.71717Z" fill="#004BB1"/>
<path fill-rule="evenodd" clip-rule="evenodd" d="M28.106 10.7828L28.308 8.63637L30.909 8.18182L33.0807 9.87374L32.7272 11.9445L30.3029 12.5L28.106 10.7828Z" fill="#004BB1"/>
<path fill-rule="evenodd" clip-rule="evenodd" d="M32.7017 17.2222L30.4795 15.5808L30.732 13.1566L33.1058 12.601L35.1765 14.3687L35.0249 16.5404L32.7017 17.2222Z" fill="#004BB1"/>
<path fill-rule="evenodd" clip-rule="evenodd" d="M32.7017 20.2525L32.8027 17.8283L35.2017 17.1212L37.2219 18.8131L37.0451 20.8838L34.8734 21.7677L32.7017 20.2525Z" fill="#004BB1"/>
<path fill-rule="evenodd" clip-rule="evenodd" d="M35.0757 24.798C35.0757 24.697 35.2019 22.4243 35.2019 22.4243L37.2979 21.5657L39.2171 23.0051L39.1918 24.9748L37.1464 26.0606L35.0757 24.798Z" fill="#004BB1"/>
<path fill-rule="evenodd" clip-rule="evenodd" d="M41.5908 28.0808L41.6413 26.3636L43.207 25.5303L44.5454 26.0606L44.5706 27.2222L43.1565 28.4596L41.5908 28.0808Z" fill="#004BB1"/>
<path fill-rule="evenodd" clip-rule="evenodd" d="M39.899 23.0303L39.8232 24.9242L41.3636 25.9091L43.0808 25.101L43.1818 23.6616L41.5657 22.399L39.899 23.0303Z" fill="#004BB1"/>
<path fill-rule="evenodd" clip-rule="evenodd" d="M37.7017 21.0859L37.8784 18.9899L39.8481 18.6616L41.54 20.1768L41.338 21.8939L39.5198 22.5L37.7017 21.0859Z" fill="#004BB1"/>
<path fill-rule="evenodd" clip-rule="evenodd" d="M33.5605 12.2222L33.7626 10.1515L35.9848 10.101L37.904 12.0202L37.7272 13.8384L35.5302 14.0404L33.5605 12.2222Z" fill="#004BB1"/>
<path fill-rule="evenodd" clip-rule="evenodd" d="M38.3584 14.1667L38.6109 12.399L40.5554 12.7525L42.121 14.8737L41.8938 16.2626L40.1008 16.0354L38.3584 14.1667Z" fill="#004BB1"/>
<path fill-rule="evenodd" clip-rule="evenodd" d="M40.2271 18.3838L41.818 20.0758L43.3836 20L43.5856 18.7121L42.222 16.8939L40.4796 16.6162L40.2271 18.3838Z" fill="#004BB1"/>
<path fill-rule="evenodd" clip-rule="evenodd" d="M41.9189 22.0202L43.4088 23.3333L44.7472 23.1061L44.8735 21.8939L43.6361 20.4545L42.02 20.4798L41.9189 22.0202Z" fill="#004BB1"/>
<path fill-rule="evenodd" clip-rule="evenodd" d="M45.0252 26.0606L45 27.1465L46.0606 27.197L47.0202 26.2121L46.9444 25.6313L46.1364 25.4545L45.0252 26.0606Z" fill="#004BB1"/>
<path fill-rule="evenodd" clip-rule="evenodd" d="M0.858398 20.0758L1.51496 18.4343L2.12102 17.8788L2.07052 18.7879L0.858398 20.5556V20.0758Z" fill="#004BB1"/>
<path fill-rule="evenodd" clip-rule="evenodd" d="M1.61621 18.0051L2.22227 17.5L3.40914 15.7576L3.51015 14.7222L2.60106 15.4293L1.76773 17.3485L1.61621 18.0051Z" fill="#004BB1"/>
<path fill-rule="evenodd" clip-rule="evenodd" d="M2.82812 14.899L3.81297 14.0657L5.17661 12.2727L5.37863 11.1364L4.21701 12.0707L2.95439 14.2677L2.82812 14.899Z" fill="#004BB1"/>
<path fill-rule="evenodd" clip-rule="evenodd" d="M5.98467 10.5556L5.68164 11.7929L7.07053 11.3384C7.07053 11.3384 8.96447 9.62122 8.96447 9.54546C8.96447 9.4697 9.19174 8.10606 9.19174 8.10606L7.65134 8.63637L5.95942 10.5303L5.98467 10.5556Z" fill="#004BB1"/>
<path fill-rule="evenodd" clip-rule="evenodd" d="M9.87334 7.77778L9.57031 9.26768H11.3127L13.6107 7.60101L13.9137 5.98485L12.0956 5.95959L9.87334 7.77778Z" fill="#004BB1"/>
<path fill-rule="evenodd" clip-rule="evenodd" d="M8.18172 7.22222L7.9292 8.15656L9.54536 7.57575L11.6666 5.88383L11.9696 4.77272L10.2019 5.35353L8.18172 7.22222Z" fill="#004BB1"/>
<path fill-rule="evenodd" clip-rule="evenodd" d="M12.6259 4.44445L14.9239 3.03031L17.0199 2.80304L16.7168 4.01516L14.3683 5.47981L12.3481 5.53031L12.6259 4.44445Z" fill="#004BB1"/>
<path fill-rule="evenodd" clip-rule="evenodd" d="M17.8535 2.55051L20.3788 1.61617L22.702 1.99495L22.4242 3.35859L19.697 4.4192L17.5 3.91414L17.8535 2.55051Z" fill="#004BB1"/>
<path fill-rule="evenodd" clip-rule="evenodd" d="M23.5858 2.09596L26.2626 1.64142L28.6363 2.60101L28.2828 3.91415L25.606 4.34344L23.207 3.38384L23.5858 2.09596Z" fill="#004BB1"/>
<path fill-rule="evenodd" clip-rule="evenodd" d="M29.4441 2.82828L31.9189 2.92929L34.1159 4.49494L33.7623 5.65656L31.3886 5.68181L29.1411 4.16666L29.4441 2.82828Z" fill="#004BB1"/>
<path fill-rule="evenodd" clip-rule="evenodd" d="M36.4644 9.92425L38.4088 11.9192L40.3532 12.3485L40.6058 11.0606L38.9139 8.96466L36.8179 8.38385L36.4644 9.92425Z" fill="#004BB1"/>
<path fill-rule="evenodd" clip-rule="evenodd" d="M34.4697 5.95959L34.7728 4.77272L36.995 5.42929L38.8132 7.32323L38.5606 8.33333L36.5404 7.75252L34.4697 5.95959Z" fill="#004BB1"/>
<path fill-rule="evenodd" clip-rule="evenodd" d="M39.293 8.76262L40.9091 10.9343L42.5758 11.8939L42.8536 11.0606L41.4142 8.96464L39.4697 7.72726L39.293 8.76262Z" fill="#004BB1"/>
<path fill-rule="evenodd" clip-rule="evenodd" d="M40.9849 12.7525L42.4748 14.9242L43.9899 15.6566L44.1414 14.7475L42.8283 12.5L41.2121 11.4899L40.9849 12.7525Z" fill="#004BB1"/>
<path fill-rule="evenodd" clip-rule="evenodd" d="M42.6764 15.3535L42.4238 16.7424L43.7622 18.4343L45.1511 19.1162L45.2774 18.2071L44.0905 16.1111L42.6764 15.3535Z" fill="#004BB1"/>
<path fill-rule="evenodd" clip-rule="evenodd" d="M43.9141 20.303L44.0403 19.0909L45.3029 19.6212L46.313 21.2626L46.2625 22.1717L45.1514 21.7424L43.9141 20.303Z" fill="#004BB1"/>
<path fill-rule="evenodd" clip-rule="evenodd" d="M45.2778 22.197L45.1768 23.1818L46.1869 24.1162L47.096 24.1919V23.6616L46.2879 22.4242L45.2778 22.197Z" fill="#004BB1"/>
<path fill-rule="evenodd" clip-rule="evenodd" d="M46.3633 24.4697V25.2273L47.1461 25.5051L47.7522 25.1768L47.1966 24.4697H46.3633Z" fill="#004BB1"/>
<path fill-rule="evenodd" clip-rule="evenodd" d="M47.6261 26.0101L46.2119 27.2727V28.0808L47.1463 27.3485L47.6261 26.0101Z" fill="#004BB1"/>
<path fill-rule="evenodd" clip-rule="evenodd" d="M47.2471 25.6313C47.3481 25.5808 47.9541 25.3788 47.9541 25.3788L47.2976 26.0606L47.2723 25.6313H47.2471Z" fill="#004BB1"/>
<path fill-rule="evenodd" clip-rule="evenodd" d="M47.2222 27.4495L47.8282 25.8839L48.0302 25.5051C48.0302 25.5051 47.9292 26.2626 47.8535 26.3636C47.7777 26.4647 47.2979 27.702 47.2979 27.702L47.2474 27.7778V27.4495H47.2222Z" fill="#004BB1"/>
<path fill-rule="evenodd" clip-rule="evenodd" d="M47.323 24.3182L48.03 25.3283L48.0048 24.6717L47.424 23.9899L47.2725 23.8131V24.2677L47.323 24.3182Z" fill="#004BB1"/>
<path fill-rule="evenodd" clip-rule="evenodd" d="M46.54 22.399L47.7522 24.1414L47.6259 23.3081L47.2976 22.601L46.6158 21.7424L46.54 22.399Z" fill="#004BB1"/>
<path fill-rule="evenodd" clip-rule="evenodd" d="M47.5249 22.7273L47.7522 23.2828L47.8279 24.1414L48.0552 24.5202C48.0552 24.5202 48.0805 22.5 48.0552 22.0455C48.0047 21.5657 47.9289 21.0859 47.8784 20.9091C47.8027 20.7323 47.7522 20.5303 47.7522 20.5303L47.7269 21.4899L47.5754 22.197L47.5502 22.7525L47.5249 22.7273Z" fill="#004BB1"/>
<path fill-rule="evenodd" clip-rule="evenodd" d="M3.96458 14.1667C3.98983 14.1162 5.30296 12.3737 5.30296 12.3737L6.69185 11.8434L6.54034 13.3081L4.97468 15.1263L3.7373 15.3788L3.93933 14.1667H3.96458Z" fill="#004BB1"/>
<path fill-rule="evenodd" clip-rule="evenodd" d="M0.833008 19.899C0.833008 19.8737 1.31281 17.7525 1.59058 16.9949C1.86836 16.2121 2.42392 15.0505 2.42392 15.0505L2.49967 14.899V15.505C2.49967 15.505 2.04513 16.3889 1.96937 16.5909C1.54008 17.702 1.2118 18.7374 0.833008 19.899Z" fill="#004BB1"/>
<path fill-rule="evenodd" clip-rule="evenodd" d="M7.55012 7.77777L6.11073 8.93939L4.54507 10.9596L4.39355 11.6162L5.42891 10.7323L5.75719 10.505L7.32285 8.66161L7.55012 7.77777Z" fill="#004BB1"/>
<path fill-rule="evenodd" clip-rule="evenodd" d="M10.0249 4.87373L6.91889 7.57575C6.91889 7.57575 6.51485 8.20707 6.46434 8.28282C6.43909 8.35858 6.91889 8.0303 6.91889 8.0303L8.73707 6.5404L9.89869 5.42929L10.0249 4.89899V4.87373Z" fill="#004BB1"/>
<path fill-rule="evenodd" clip-rule="evenodd" d="M10.833 4.36868L10.5552 4.97474L12.2471 4.34343L13.7622 3.40908L14.6461 2.90403L14.9239 2.29797L13.434 2.80302L12.0956 3.53535L10.833 4.36868Z" fill="#004BB1"/>
<path fill-rule="evenodd" clip-rule="evenodd" d="M15.7071 1.94445L15.4546 2.55051L17.5505 2.399L20.1263 1.54041L20.4546 0.782837L18.2576 0.984857L15.7071 1.94445Z" fill="#004BB1"/>
<path fill-rule="evenodd" clip-rule="evenodd" d="M21.2624 0.631322L21.0352 1.26264L23.1564 1.74243L25.9594 1.4394L26.3129 0.70708L24.0655 0.30304L21.2624 0.631322Z" fill="#004BB1"/>
<path fill-rule="evenodd" clip-rule="evenodd" d="M26.8936 1.48989L29.2168 2.49999L31.6915 2.67676L32.0451 1.96969L29.8228 0.959589L27.1713 0.757568L26.8936 1.48989Z" fill="#004BB1"/>
<path fill-rule="evenodd" clip-rule="evenodd" d="M32.5503 2.95455L34.6463 4.39395L36.8432 5.07576L37.0957 4.49496L35.2523 3.03031L32.7271 2.22223L32.5503 2.95455Z" fill="#004BB1"/>
<path fill-rule="evenodd" clip-rule="evenodd" d="M37.5503 5.50505L39.217 7.24747L41.1867 8.58586L41.3887 8.0303L39.8483 6.26262L37.7776 4.89899L37.5503 5.50505Z" fill="#004BB1"/>
<path fill-rule="evenodd" clip-rule="evenodd" d="M41.7422 9.16665L43.0048 10.9596L44.6462 12.8788L44.7725 12.5505L43.5856 10.3535L41.9442 8.58585L41.7422 9.16665Z" fill="#004BB1"/>
<path fill-rule="evenodd" clip-rule="evenodd" d="M43.3332 11.7677L43.106 12.5505C43.106 12.5505 44.3181 14.6717 44.3938 14.6717C44.4696 14.6717 45.6565 16.1364 45.6565 16.1364L45.7575 15.6061L44.8231 13.3838L43.3332 11.7677Z" fill="#004BB1"/>
<path fill-rule="evenodd" clip-rule="evenodd" d="M44.6464 15.3788L44.4443 16.2374L45.5302 18.2323L46.5655 19.5707L46.6666 19.0404L45.9342 16.8434L44.6464 15.3788Z" fill="#004BB1"/>
<path fill-rule="evenodd" clip-rule="evenodd" d="M45.7323 18.8384L45.5303 19.6465L46.3636 21.2121L47.298 22.3232L47.1464 21.3636L46.6666 19.9495L45.7323 18.8384Z" fill="#004BB1"/>
<path fill-rule="evenodd" clip-rule="evenodd" d="M46.9188 19.7222L46.8936 20.2273L47.3481 21.6162L47.4744 22.096L47.6006 21.3889L47.0451 19.697L46.9188 19.7222Z" fill="#004BB1"/>
<path fill-rule="evenodd" clip-rule="evenodd" d="M46.1108 16.3384V16.7172L46.4896 18.0303L46.8432 19.0151L47.1967 19.7475L47.5502 20.7323L47.6512 20.303L47.1967 18.6616L46.4644 16.8687L46.1108 16.3384Z" fill="#004BB1"/>
<path fill-rule="evenodd" clip-rule="evenodd" d="M45.1262 13.2828L45.0757 13.6111L45.707 15.202L46.2373 16.2626L46.8686 17.601L46.9949 17.904L46.3888 15.5808C46.3888 15.5808 45.404 13.8384 45.3787 13.6869C45.3282 13.5353 45.1009 13.3333 45.1009 13.3333L45.1262 13.2828Z" fill="#004BB1"/>
<path fill-rule="evenodd" clip-rule="evenodd" d="M46.6414 15.6061L47.399 17.8283C47.399 17.8283 47.4242 18.005 47.5757 18.8384C47.7273 19.697 47.7778 19.9747 47.7778 19.9747V20.1768L47.5252 19.3687L47.2475 18.3081L46.6414 15.9343L46.5151 15.4293L46.6414 15.6313V15.6061Z" fill="#004BB1"/>
<path fill-rule="evenodd" clip-rule="evenodd" d="M43.9141 10.3283L45.2019 12.2727C45.2019 12.2727 45.6817 13.2576 45.8838 13.7121C46.0858 14.1667 46.2625 14.7475 46.2625 14.7475L45.0757 12.803L43.9393 10.3283H43.9141Z" fill="#004BB1"/>
<path fill-rule="evenodd" clip-rule="evenodd" d="M40.2522 6.16162L40.126 6.31314L41.1866 7.52526L42.4492 8.83839L43.4846 9.92425C43.4846 9.92425 42.2977 8.15657 42.1462 7.95455C41.9947 7.75253 40.8078 6.56566 40.6058 6.38889C40.4038 6.21213 40.2522 6.16162 40.2522 6.16162Z" fill="#004BB1"/>
<path fill-rule="evenodd" clip-rule="evenodd" d="M35.6817 2.92931C35.6817 2.92931 37.5504 3.98991 37.8534 4.21718C38.1565 4.41921 39.2928 5.25254 39.5201 5.47981C39.7474 5.70708 39.7726 5.75759 39.7726 5.75759L39.5454 5.9091L37.1716 4.39395L35.606 3.10607L35.6817 2.97981V2.92931Z" fill="#004BB1"/>
<path fill-rule="evenodd" clip-rule="evenodd" d="M30.4038 0.732315C30.4038 0.732315 32.3483 0.959588 33.6361 1.74242C34.9493 2.52524 34.9745 2.5505 34.9745 2.5505L34.823 2.75252L32.3735 1.89393L30.2271 0.959588L30.3786 0.732315H30.4038Z" fill="#004BB1"/>
<path fill-rule="evenodd" clip-rule="evenodd" d="M24.4697 0L26.9697 0.151515L29.6212 0.580808L29.4445 0.782828L26.6414 0.555556L24.4697 0Z" fill="#004BB1"/>
<path fill-rule="evenodd" clip-rule="evenodd" d="M18.7622 0.631313C18.7622 0.631313 21.7925 0.151515 22.045 0.10101C22.2976 0.0757576 23.6359 0 23.6359 0L23.5349 0.176768L20.8834 0.555556L18.7622 0.631313Z" fill="#004BB1"/>
<path fill-rule="evenodd" clip-rule="evenodd" d="M13.9395 2.29797L17.8536 0.833328L17.8283 0.984843L15.2526 2.0202L13.99 2.44949L13.9395 2.29797Z" fill="#004BB1"/>
<path fill-rule="evenodd" clip-rule="evenodd" d="M5.90877 8.73738L3.76231 11.7677L2.12089 15.2273L1.99463 15.7828L3.05524 13.7626L4.09059 11.8182L5.90877 8.73738Z" fill="#004BB1"/>
<path d="M66.7347 15.3485H63.4809V2.09473C63.4809 0.532915 64.8475 -0.746908 66.5395 -0.746908H71.3551V2.05135H66.7347V15.3485ZM64.0883 -0.746908L62.3529 2.05135H59.1425V-0.746908H64.0883ZM76.6257 8.77584V12.5502H84.9337L86.4521 15.3485H76.4305C74.7385 15.3485 73.3719 14.0687 73.3719 12.5069V2.09473C73.3719 0.532915 74.7385 -0.746908 76.4305 -0.746908H86.4521L84.9337 2.05135H76.6257V5.97759H84.283V8.77584H76.6257ZM88.9701 -0.746908H92.2673V5.97759H94.328L98.4495 -0.746908H102.137L97.0178 7.30079L102.354 15.3485H98.6664L94.4365 8.77584H92.2673V15.3485H88.9701V-0.746908Z" fill="#004BB1"/>
<path d="M107.795 7.73463L108.88 5.97759H114.758V-0.746908H118.012V15.3485H114.758V8.77584H107.795V15.3485H104.541V-0.746908H107.795V7.73463ZM131.428 13.201H124.378L126.114 10.4027H130.452L127.697 2.50688L123.207 15.3485H119.736L124.465 1.87781C125.029 0.272612 126.005 -0.963827 127.697 -0.963827C129.389 -0.963827 130.365 0.272612 130.929 1.87781L135.658 15.3485H132.187L131.428 13.201ZM141.285 12.0947L145.775 -0.746908H149.246L144.517 12.7238C143.953 14.329 142.977 15.5654 141.285 15.5654C139.593 15.5654 138.617 14.329 138.053 12.7238L133.324 -0.746908H136.795L141.285 12.0947ZM154.222 8.77584V12.5502H162.53L164.049 15.3485H154.027C152.335 15.3485 150.968 14.0687 150.968 12.5069V2.09473C150.968 0.532915 152.335 -0.746908 154.027 -0.746908H164.049L162.53 2.05135H154.222V5.97759H161.879V8.77584H154.222ZM169.69 -0.855368C171.382 -0.855368 172.25 0.424456 172.922 1.98627L177.434 12.6153V-0.746908H180.688V12.6153C180.688 14.1771 179.105 15.457 177.413 15.457C175.721 15.457 174.853 14.1771 174.181 12.6153L169.669 1.98627V15.3485H166.415V1.98627C166.415 0.424456 167.998 -0.855368 169.69 -0.855368Z" fill="black"/>
<path d="M59.1849 23.9674C59.1849 23.3381 59.8519 22.8271 60.6748 22.8271H61.2127C61.6161 22.8271 62.1916 22.9939 62.4606 23.2628L61.7613 23.8007C61.6376 23.6286 61.4117 23.521 61.2127 23.521H60.6748C60.2983 23.521 59.9917 23.72 59.9917 23.9674C59.9917 24.5806 62.5144 24.3332 62.5144 25.6779C62.5144 26.3072 61.8205 26.8182 60.9706 26.8182H60.4328C60.0132 26.8182 59.4108 26.6514 59.1311 26.3825L59.825 25.8446C59.9594 26.0168 60.2122 26.1243 60.4328 26.1243H60.9706C61.3794 26.1243 61.7075 25.9253 61.7075 25.6779C61.7075 24.9894 59.1849 25.3014 59.1849 23.9674ZM65.0634 26.872H64.5256C63.6757 26.872 62.9818 26.1943 62.9818 25.3552V24.2902C62.9818 23.4511 63.6757 22.7733 64.5256 22.7733H65.0634C65.9133 22.7733 66.6072 23.4511 66.6072 24.2902V25.3552C66.6072 26.1943 65.9133 26.872 65.0634 26.872ZM64.5256 26.1781H65.0634C65.4722 26.1781 65.8003 25.807 65.8003 25.3552V24.2902C65.8003 23.8383 65.4722 23.4672 65.0634 23.4672H64.5256C64.1168 23.4672 63.7887 23.8383 63.7887 24.2902V25.3552C63.7887 25.807 64.1168 26.1781 64.5256 26.1781ZM68.0632 26.1243H69.9619L70.3384 26.8182H68.0148C67.5952 26.8182 67.2563 26.5008 67.2563 26.1136V22.8271H68.0632V26.1243ZM70.6173 22.8271H71.4241V25.3014C71.4241 25.7532 71.7523 26.1243 72.161 26.1243H72.5913C73.0001 26.1243 73.3282 25.7532 73.3282 25.3014V22.8271H74.1351V25.3014C74.1351 26.1405 73.4412 26.8182 72.5913 26.8182H72.161C71.3112 26.8182 70.6173 26.1405 70.6173 25.3014V22.8271Z" fill="black"/>
<path d="M81.3008 26.8182H80.4939V23.5318C80.4939 23.1445 80.8328 22.8271 81.2524 22.8271H82.4464V23.521H81.3008V26.8182ZM80.6445 22.8271L80.2142 23.521H79.4182V22.8271H80.6445ZM83.0218 22.8271H83.8287V26.8182H83.0218V22.8271ZM86.517 26.872H85.9791C85.1293 26.872 84.4354 26.1943 84.4354 25.3552V24.2902C84.4354 23.4511 85.1293 22.7733 85.9791 22.7733H86.517C87.3669 22.7733 88.0607 23.4511 88.0607 24.2902V25.3552C88.0607 26.1943 87.3669 26.872 86.517 26.872ZM85.9791 26.1781H86.517C86.9258 26.1781 87.2539 25.807 87.2539 25.3552V24.2902C87.2539 23.8383 86.9258 23.4672 86.517 23.4672H85.9791C85.5703 23.4672 85.2422 23.8383 85.2422 24.2902V25.3552C85.2422 25.807 85.5703 26.1781 85.9791 26.1781ZM89.5114 22.8002C89.9309 22.8002 90.1461 23.1176 90.3128 23.5049L91.4316 26.1405V22.8271H92.2384V26.1405C92.2384 26.5277 91.8457 26.8451 91.4262 26.8451C91.0067 26.8451 90.7915 26.5277 90.6248 26.1405L89.506 23.5049V26.8182H88.6992V23.5049C88.6992 23.1176 89.0918 22.8002 89.5114 22.8002ZM92.8563 23.9674C92.8563 23.3381 93.5233 22.8271 94.3462 22.8271H94.8841C95.2875 22.8271 95.863 22.9939 96.132 23.2628L95.4327 23.8007C95.309 23.6286 95.0831 23.521 94.8841 23.521H94.3462C93.9697 23.521 93.6631 23.72 93.6631 23.9674C93.6631 24.5806 96.1858 24.3332 96.1858 25.6779C96.1858 26.3072 95.4919 26.8182 94.642 26.8182H94.1042C93.6846 26.8182 93.0822 26.6514 92.8025 26.3825L93.4964 25.8446C93.6308 26.0168 93.8836 26.1243 94.1042 26.1243H94.642C95.0508 26.1243 95.3789 25.9253 95.3789 25.6779C95.3789 24.9894 92.8563 25.3014 92.8563 23.9674Z" fill="#004BB1"/>
</svg>
