<svg width="32" height="32" viewBox="0 0 32 32" fill="none" xmlns="http://www.w3.org/2000/svg">
<path d="M2.66699 8L11.8843 13.2227C15.283 15.148 16.7177 15.148 20.1163 13.2227L29.3337 8" stroke="black" stroke-width="2" stroke-linecap="round" stroke-linejoin="round"/>
<path d="M2.6884 17.968C2.77507 22.0546 2.81907 24.0986 4.32707 25.612C5.83507 27.1266 7.93373 27.1786 12.1324 27.284C14.7191 27.3506 17.2817 27.3506 19.8684 27.284C24.0671 27.1786 26.1657 27.1266 27.6737 25.612C29.1817 24.0986 29.2257 22.0546 29.3137 17.968C29.3404 16.6533 29.3404 15.3466 29.3137 14.032C29.2257 9.9453 29.1817 7.9013 27.6737 6.38797C26.1657 4.8733 24.0671 4.8213 19.8684 4.71597C17.2901 4.65091 14.7107 4.65091 12.1324 4.71597C7.93373 4.8213 5.83507 4.8733 4.32707 6.38797C2.81907 7.9013 2.77507 9.9453 2.68707 14.032C2.659 15.3438 2.66033 16.6561 2.6884 17.968Z" stroke="black" stroke-width="2" stroke-linecap="round" stroke-linejoin="round"/>
</svg>
