<svg width="30" height="30" viewBox="0 0 30 30" fill="none" xmlns="http://www.w3.org/2000/svg">
<path d="M4.03735 14.9227C2.77335 12.72 2.16268 10.92 1.79468 9.09599C1.25068 6.39732 2.49601 3.76132 4.55868 2.07866C5.43068 1.36799 6.43068 1.61199 6.94668 2.53599L8.11068 4.62532C9.03335 6.28132 9.49468 7.10799 9.40401 7.98532C9.31201 8.86399 8.68935 9.57865 7.44535 11.008L4.03735 14.9227ZM4.03735 14.9227C6.59601 19.384 10.6107 23.4027 15.0773 25.9627M15.0773 25.9627C17.2813 27.2267 19.08 27.8373 20.904 28.2053C23.6027 28.7493 26.2387 27.504 27.92 25.4413C28.632 24.5693 28.388 23.5693 27.464 23.0533L25.3747 21.8893C23.7187 20.9667 22.892 20.5053 22.0147 20.596C21.136 20.688 20.4213 21.3107 18.992 22.5547L15.0773 25.9627Z" stroke="black" stroke-width="2" stroke-linecap="round" stroke-linejoin="round"/>
</svg>
