<svg width="64" height="64" viewBox="0 0 64 64" fill="none" xmlns="http://www.w3.org/2000/svg">
<rect width="64" height="64" rx="32" fill="#004BB1"/>
<path d="M29.32 29.3199C28.6065 30.0297 28.2037 30.9935 28.2 31.9999C28.2 33.0078 28.6003 33.9743 29.3129 34.687C30.0256 35.3996 30.9921 35.7999 32 35.7999C33.0063 35.7962 33.9702 35.3934 34.68 34.6799" stroke="white" stroke-width="1.5" stroke-linecap="round" stroke-linejoin="round"/>
<path d="M32.0001 20.6C29.7454 20.6 27.5413 21.2686 25.6666 22.5212C23.7919 23.7739 22.3307 25.5543 21.4679 27.6374C20.605 29.7205 20.3793 32.0126 20.8192 34.224C21.259 36.4354 22.3448 38.4667 23.9391 40.061C25.5334 41.6553 27.5647 42.7411 29.7761 43.1809C31.9875 43.6208 34.2796 43.395 36.3627 42.5322C38.4458 41.6694 40.2262 40.2082 41.4789 38.3335C42.7315 36.4588 43.4001 34.2547 43.4001 32" stroke="white" stroke-width="1.5" stroke-linecap="round" stroke-linejoin="round"/>
<path d="M32 13C28.2422 13 24.5687 14.1143 21.4442 16.2021C18.3196 18.2898 15.8844 21.2572 14.4463 24.729C13.0082 28.2008 12.632 32.0211 13.3651 35.7067C14.0982 39.3924 15.9078 42.7778 18.565 45.435C21.2222 48.0922 24.6077 49.9018 28.2933 50.6349C31.9789 51.368 35.7992 50.9918 39.271 49.5537C42.7428 48.1156 45.7102 45.6804 47.7979 42.5558C49.8857 39.4313 51 35.7578 51 32M39.05 24.952L33.9 30.1" stroke="white" stroke-width="1.5" stroke-linecap="round" stroke-linejoin="round"/>
<path d="M49.8799 19.6879L43.3999 20.5999L44.3119 14.1199C44.3186 14.0447 44.3027 13.9691 44.2663 13.9029C44.2298 13.8368 44.1745 13.7829 44.1073 13.7484C44.0401 13.7138 43.9641 13.7001 43.889 13.7089C43.814 13.7177 43.7433 13.7487 43.6859 13.7979L39.3899 18.0719C38.9487 18.5164 38.6241 19.063 38.4451 19.6632C38.2661 20.2633 38.2382 20.8984 38.3639 21.5119L39.0479 24.9519L42.4879 25.6339C43.1015 25.7596 43.7366 25.7318 44.3367 25.5528C44.9369 25.3738 45.4835 25.0492 45.9279 24.6079L50.1999 20.3139C50.2493 20.2565 50.2804 20.1856 50.2892 20.1103C50.298 20.035 50.2841 19.9589 50.2492 19.8916C50.2144 19.8243 50.1603 19.7689 50.0937 19.7327C50.0272 19.6964 49.9514 19.6808 49.8759 19.6879" stroke="white" stroke-width="1.5" stroke-linecap="round" stroke-linejoin="round"/>
</svg>
