<svg width="64" height="64" viewBox="0 0 64 64" fill="none" xmlns="http://www.w3.org/2000/svg">
<rect width="64" height="64" rx="32" fill="#004BB1"/>
<path d="M37.508 28C39.44 28 41.008 29.568 41.008 31.5V40.998C41.008 43.3855 40.0596 45.6752 38.3714 47.3634C36.6832 49.0516 34.3935 50 32.006 50C29.6185 50 27.3288 49.0516 25.6406 47.3634C23.9524 45.6752 23.004 43.3855 23.004 40.998V31.5C23.004 29.568 24.57 28 26.504 28H37.508ZM37.508 31H26.504C26.3714 31 26.2442 31.0527 26.1504 31.1464C26.0567 31.2402 26.004 31.3674 26.004 31.5V40.998C26.004 42.5898 26.6364 44.1165 27.7619 45.2421C28.8875 46.3676 30.4142 47 32.006 47C33.5978 47 35.1245 46.3676 36.2501 45.2421C37.3756 44.1165 38.008 42.5898 38.008 40.998V31.5C38.008 31.3674 37.9553 31.2402 37.8616 31.1464C37.7678 31.0527 37.6406 31 37.508 31ZM15.5 28H22.262C21.5566 28.8523 21.1257 29.8982 21.026 31H15.5C15.3674 31 15.2402 31.0527 15.1464 31.1464C15.0527 31.2402 15 31.3674 15 31.5V37.998C14.9995 38.7539 15.1704 39.5001 15.4998 40.1804C15.8292 40.8607 16.3086 41.4575 16.9019 41.9259C17.4952 42.3943 18.187 42.722 18.9252 42.8845C19.6634 43.047 20.4289 43.04 21.164 42.864C21.334 43.872 21.644 44.834 22.07 45.728C21.4087 45.908 20.7187 45.9987 20 46C18.9493 46 17.9088 45.793 16.9381 45.3908C15.9673 44.9887 15.0853 44.3992 14.3424 43.6561C13.5995 42.9131 13.0103 42.0309 12.6084 41.0601C12.2065 40.0892 11.9997 39.0487 12 37.998V31.5C12 29.568 13.568 28 15.5 28ZM41.75 28H48.5C50.432 28 52 29.568 52 31.5V38C52.0003 39.2263 51.7186 40.4363 51.1768 41.5364C50.6349 42.6366 49.8474 43.5974 48.8751 44.3447C47.9028 45.092 46.7717 45.6058 45.5692 45.8464C44.3667 46.0869 43.125 46.0478 41.94 45.732C42.368 44.836 42.678 43.874 42.85 42.866C43.2193 42.954 43.6027 42.9987 44 43C45.3261 43 46.5979 42.4732 47.5355 41.5355C48.4732 40.5979 49 39.3261 49 38V31.5C49 31.3674 48.9473 31.2402 48.8536 31.1464C48.7598 31.0527 48.6326 31 48.5 31H42.986C42.8863 29.8982 42.4554 28.8523 41.75 28ZM32 14C33.5913 14 35.1174 14.6321 36.2426 15.7574C37.3679 16.8826 38 18.4087 38 20C38 21.5913 37.3679 23.1174 36.2426 24.2426C35.1174 25.3679 33.5913 26 32 26C30.4087 26 28.8826 25.3679 27.7574 24.2426C26.6321 23.1174 26 21.5913 26 20C26 18.4087 26.6321 16.8826 27.7574 15.7574C28.8826 14.6321 30.4087 14 32 14ZM45 16C46.3261 16 47.5979 16.5268 48.5355 17.4645C49.4732 18.4021 50 19.6739 50 21C50 22.3261 49.4732 23.5979 48.5355 24.5355C47.5979 25.4732 46.3261 26 45 26C43.6739 26 42.4021 25.4732 41.4645 24.5355C40.5268 23.5979 40 22.3261 40 21C40 19.6739 40.5268 18.4021 41.4645 17.4645C42.4021 16.5268 43.6739 16 45 16ZM19 16C20.3261 16 21.5979 16.5268 22.5355 17.4645C23.4732 18.4021 24 19.6739 24 21C24 22.3261 23.4732 23.5979 22.5355 24.5355C21.5979 25.4732 20.3261 26 19 26C17.6739 26 16.4021 25.4732 15.4645 24.5355C14.5268 23.5979 14 22.3261 14 21C14 19.6739 14.5268 18.4021 15.4645 17.4645C16.4021 16.5268 17.6739 16 19 16ZM32 17C31.2044 17 30.4413 17.3161 29.8787 17.8787C29.3161 18.4413 29 19.2044 29 20C29 20.7956 29.3161 21.5587 29.8787 22.1213C30.4413 22.6839 31.2044 23 32 23C32.7956 23 33.5587 22.6839 34.1213 22.1213C34.6839 21.5587 35 20.7956 35 20C35 19.2044 34.6839 18.4413 34.1213 17.8787C33.5587 17.3161 32.7956 17 32 17ZM45 19C44.4696 19 43.9609 19.2107 43.5858 19.5858C43.2107 19.9609 43 20.4696 43 21C43 21.5304 43.2107 22.0391 43.5858 22.4142C43.9609 22.7893 44.4696 23 45 23C45.5304 23 46.0391 22.7893 46.4142 22.4142C46.7893 22.0391 47 21.5304 47 21C47 20.4696 46.7893 19.9609 46.4142 19.5858C46.0391 19.2107 45.5304 19 45 19ZM19 19C18.4696 19 17.9609 19.2107 17.5858 19.5858C17.2107 19.9609 17 20.4696 17 21C17 21.5304 17.2107 22.0391 17.5858 22.4142C17.9609 22.7893 18.4696 23 19 23C19.5304 23 20.0391 22.7893 20.4142 22.4142C20.7893 22.0391 21 21.5304 21 21C21 20.4696 20.7893 19.9609 20.4142 19.5858C20.0391 19.2107 19.5304 19 19 19Z" fill="white"/>
</svg>
