<svg width="64" height="64" viewBox="0 0 64 64" fill="none" xmlns="http://www.w3.org/2000/svg">
<rect width="64" height="64" rx="32" fill="#004BB1"/>
<path d="M15 46C15.7956 46 16.5587 46.3161 17.1213 46.8787C17.6839 47.4413 18 48.2043 18 49C18 49.7957 17.6839 50.5587 17.1213 51.1213C16.5587 51.6839 15.7956 52 15 52C14.2044 52 13.4413 51.6839 12.8787 51.1213C12.3161 50.5587 12 49.7957 12 49C12 48.2043 12.3161 47.4413 12.8787 46.8787C13.4413 46.3161 14.2044 46 15 46ZM25 40C26.3261 40 27.5979 40.5268 28.5355 41.4645C29.4732 42.4021 30 43.6739 30 45C30 46.3261 29.4732 47.5979 28.5355 48.5355C27.5979 49.4732 26.3261 50 25 50C23.6739 50 22.4021 49.4732 21.4645 48.5355C20.5268 47.5979 20 46.3261 20 45C20 43.6739 20.5268 42.4021 21.4645 41.4645C22.4021 40.5268 23.6739 40 25 40ZM37 38C34.62 38 32.46 37 31 35.3C29.54 37 27.38 38 25 38C21.08 38 17.82 35.18 17.14 31.48C15.6296 30.8959 14.3308 29.8693 13.4136 28.5346C12.4965 27.1999 12.0038 25.6194 12 24C12 21.8783 12.8429 19.8434 14.3431 18.3431C15.8434 16.8429 17.8783 16 20 16L21.54 16.14C23 14.82 24.9 14 27 14C29.38 14 31.54 15 33 16.7C34.46 15 36.62 14 39 14C42.92 14 46.18 16.82 46.86 20.52C48.3704 21.1041 49.6692 22.1307 50.5864 23.4654C51.5035 24.8001 51.9962 26.3806 52 28C52 30.1217 51.1571 32.1566 49.6569 33.6569C48.1566 35.1571 46.1217 36 44 36L42.46 35.86C41 37.18 39.1 38 37 38ZM20 20C18.9391 20 17.9217 20.4214 17.1716 21.1716C16.4214 21.9217 16 22.9391 16 24C16 25.0609 16.4214 26.0783 17.1716 26.8284C17.9217 27.5786 18.9391 28 20 28C20.66 28 21.28 27.84 21.84 27.56C21.2981 28.2582 21.0028 29.1162 21 30C21 31.0609 21.4214 32.0783 22.1716 32.8284C22.9217 33.5786 23.9391 34 25 34C26.2 34 27.28 33.46 28 32.62L30.94 29.26L34 32.68C34.76 33.48 35.82 34 37 34C39 34 40.66 32.52 41 30.6C41.68 31.46 42.78 32 44 32C45.0609 32 46.0783 31.5786 46.8284 30.8284C47.5786 30.0783 48 29.0609 48 28C48 26.9391 47.5786 25.9217 46.8284 25.1716C46.0783 24.4214 45.0609 24 44 24C43.34 24 42.72 24.16 42.16 24.44C42.7019 23.7418 42.9972 22.8838 43 22C43 20.9391 42.5786 19.9217 41.8284 19.1716C41.0783 18.4214 40.0609 18 39 18C37.82 18 36.76 18.52 36 19.32L32.94 22.74L30 19.38C29.28 18.54 28.2 18 27 18C25 18 23.34 19.48 23 21.4C22.32 20.54 21.22 20 20 20ZM25 43C24.4696 43 23.9609 43.2107 23.5858 43.5858C23.2107 43.9609 23 44.4696 23 45C23 45.5304 23.2107 46.0391 23.5858 46.4142C23.9609 46.7893 24.4696 47 25 47C25.5304 47 26.0391 46.7893 26.4142 46.4142C26.7893 46.0391 27 45.5304 27 45C27 44.4696 26.7893 43.9609 26.4142 43.5858C26.0391 43.2107 25.5304 43 25 43Z" fill="white"/>
</svg>
