<svg width="64" height="64" viewBox="0 0 64 64" fill="none" xmlns="http://www.w3.org/2000/svg">
<rect width="64" height="64" rx="32" fill="#5300B1"/>
<g clip-path="url(#clip0_32_1270)">
<path d="M19.2665 54.2857V45.3646C16.7319 43.8981 14.5684 41.8684 12.9432 39.4325C11.318 36.9966 10.2746 34.2196 9.89371 31.3162C9.51283 28.4128 9.80461 25.4606 10.7465 22.6879C11.6884 19.9153 13.2552 17.3963 15.3259 15.3256C17.3965 13.255 19.9155 11.6882 22.6882 10.7463C25.4609 9.80437 28.413 9.51258 31.3164 9.89347C34.2199 10.2744 36.9968 11.3177 39.4328 12.9429C41.8687 14.5681 43.8983 16.7316 45.3648 19.2663M38.3671 54.2857V46.3314H44.7339C45.5784 46.3305 46.388 45.9946 46.9852 45.3975C47.5823 44.8004 47.9182 43.9908 47.9191 43.1463V35.1886M27.2208 27.224H9.77624" stroke="white" stroke-width="3.42857" stroke-linecap="round" stroke-linejoin="round"/>
<path d="M39.9578 19.2663V35.1852M27.2241 27.224C27.2237 26.1783 27.4294 25.1427 27.8296 24.1766C28.2298 23.2105 28.8165 22.3328 29.5563 21.5936C30.2961 20.8545 31.1743 20.2685 32.1408 19.8692C33.1072 19.4698 34.143 19.265 35.1887 19.2663H50.8573C51.7666 19.2663 52.6387 19.6275 53.2816 20.2705C53.9246 20.9135 54.2858 21.7856 54.2858 22.6949V31.7566C54.2858 32.6659 53.9246 33.538 53.2816 34.181C52.6387 34.8239 51.7666 35.1852 50.8573 35.1852H35.1853C34.1395 35.1861 33.1039 34.9808 32.1376 34.581C31.1713 34.1812 30.2933 33.5948 29.5539 32.8554C28.8144 32.116 28.2281 31.238 27.8283 30.2717C27.4285 29.3054 27.2232 28.2697 27.2241 27.224Z" stroke="white" stroke-width="3.42857" stroke-linecap="round" stroke-linejoin="round"/>
</g>
<defs>
<clipPath id="clip0_32_1270">
<rect width="48" height="48" fill="white" transform="translate(8 8)"/>
</clipPath>
</defs>
</svg>
